<?xml version="1.0" encoding="UTF-8" standalone="no"?>
<svg
   version="1.1"
   id="Layer_1"
   x="0px"
   y="0px"
   width="100%"
   viewBox="0 0 4676 2293"
   enable-background="new 0 0 4676 2293"
   xml:space="preserve"
   sodipodi:docname="logo.svg"
   inkscape:version="1.2.2 (b0a8486541, 2022-12-01)"
   xmlns:inkscape="http://www.inkscape.org/namespaces/inkscape"
   xmlns:sodipodi="http://sodipodi.sourceforge.net/DTD/sodipodi-0.dtd"
   xmlns="http://www.w3.org/2000/svg"
   xmlns:svg="http://www.w3.org/2000/svg"><defs
   id="defs67" /><sodipodi:namedview
   id="namedview65"
   pagecolor="#ffffff"
   bordercolor="#000000"
   borderopacity="0.25"
   inkscape:showpageshadow="2"
   inkscape:pageopacity="0.0"
   inkscape:pagecheckerboard="0"
   inkscape:deskcolor="#d1d1d1"
   showgrid="false"
   inkscape:zoom="0.10292194"
   inkscape:cx="2346.4386"
   inkscape:cy="1151.3581"
   inkscape:window-width="1920"
   inkscape:window-height="1117"
   inkscape:window-x="0"
   inkscape:window-y="0"
   inkscape:window-maximized="1"
   inkscape:current-layer="Layer_1" />

<path
   fill="#595959"
   opacity="1.000000"
   stroke="none"
   d=" M1226.446289,1367.570068   C1191.670288,1331.195923 1157.424683,1295.297729 1123.113159,1259.462524   C1105.148682,1240.700317 1087.042847,1222.073120 1069.046021,1203.341675   C1036.976440,1169.963257 1004.929749,1136.562744 972.903625,1103.142578   C968.301331,1098.339844 964.102051,1093.130493 959.303101,1088.541504   C950.270813,1079.904419 940.031921,1079.808838 930.874023,1088.334229   C913.816345,1104.213745 896.939209,1120.287598 880.008972,1136.303833   C847.841858,1166.734009 815.649841,1197.138184 783.546448,1227.635376   C761.577759,1248.505005 739.824646,1269.601685 717.825806,1290.439087   C688.579651,1318.141357 659.150940,1345.650635 629.872131,1373.318359   C610.025635,1392.072632 590.354858,1411.012695 570.511108,1429.769897   C540.995361,1457.669678 511.365784,1485.449097 481.843170,1513.341797   C462.479218,1531.636597 443.291626,1550.118164 423.893707,1568.376587   C397.473938,1593.244507 370.901764,1617.950684 344.447144,1642.781860   C326.968414,1659.188354 309.699036,1675.819214 292.127869,1692.125366   C260.658783,1721.328979 229.402420,1750.778076 197.364136,1779.347412   C167.705505,1805.794800 124.134521,1799.375122 103.961449,1766.533447   C88.955315,1742.103516 94.638489,1708.025513 116.116043,1689.023438   C138.793991,1668.959229 161.024673,1648.384033 183.251755,1627.816895   C212.572830,1600.685547 241.767273,1573.416260 270.890289,1546.072266   C296.620911,1521.913452 322.140045,1497.529541 347.824066,1473.320923   C375.681183,1447.064209 403.661469,1420.938232 431.511047,1394.673706   C451.131409,1376.170166 470.584290,1357.489136 490.181427,1338.960693   C520.416321,1310.374512 550.747498,1281.890015 580.966797,1253.287354   C601.279663,1234.061279 621.427795,1214.661377 641.724976,1195.418701   C673.133362,1165.641968 704.641235,1135.969849 736.039368,1106.182129   C757.297913,1086.014160 778.389465,1065.670166 799.647156,1045.501221   C831.281860,1015.486938 863.005493,985.566467 894.666992,955.580322   C898.295776,952.143494 901.679993,948.447205 905.328003,945.031860   C930.105469,921.835144 967.020996,921.933899 990.823730,946.140137   C1017.431824,973.199219 1043.286621,1000.998657 1069.493042,1028.453003   C1085.587158,1045.313477 1101.697998,1062.158325 1117.850952,1078.962402   C1152.004272,1114.492432 1186.228760,1149.953857 1220.350708,1185.514160   C1249.167847,1215.545898 1277.930176,1245.631104 1306.618286,1275.786133   C1319.235840,1289.048950 1332.274292,1301.989868 1343.977417,1316.030640   C1391.605225,1373.172363 1389.524536,1457.420166 1343.074829,1513.313354   C1316.563354,1545.214722 1282.654175,1564.002441 1241.076660,1568.076416   C1232.815674,1568.885986 1224.488037,1569.394165 1216.190796,1569.399170   C1081.535767,1569.479126 946.880737,1569.477905 812.225708,1569.436157   C785.200806,1569.427856 762.142517,1553.253662 753.922363,1528.842041   C740.455750,1488.849854 768.495850,1449.469238 811.429321,1448.101807   C814.426147,1448.006226 817.428406,1448.080566 820.428162,1448.080566   C954.083313,1448.079956 1087.738770,1447.942383 1221.393066,1448.285034   C1235.311646,1448.320679 1250.191040,1440.795288 1255.549072,1425.660278   C1260.067017,1412.898438 1257.982544,1401.355713 1248.867554,1391.328003   C1241.703491,1383.446777 1234.265625,1375.814819 1226.446289,1367.570068  z"
   id="path4" />
<path
   fill="#6DC0E3"
   opacity="1.000000"
   stroke="none"
   d=" M339.687836,893.616638   C354.103699,829.196106 380.299622,771.141418 422.327301,721.076416   C466.521759,668.430298 522.306885,633.027466 588.479187,614.270386   C617.664795,605.997498 647.473206,601.571289 677.805603,599.933228   C753.558838,595.842407 826.761353,609.470215 898.965027,630.656921   C950.380310,645.743591 999.496399,666.870056 1049.100220,686.833435   C1091.613525,703.943237 1134.594727,720.044067 1177.974976,734.810791   C1244.413208,757.426514 1312.321167,774.753967 1381.771851,785.425171   C1411.640137,790.014465 1441.707642,792.700012 1471.941895,794.281433   C1505.964233,796.060974 1539.727783,794.494751 1573.324829,789.814453   C1605.707275,785.303345 1637.364868,777.589722 1666.619141,762.299561   C1673.033447,758.947021 1679.282837,754.900696 1684.752075,750.181763   C1713.656982,725.242737 1761.392944,730.705078 1781.581543,765.638489   C1794.868774,788.629822 1793.922852,823.541443 1767.647949,846.159363   C1746.512939,864.352722 1722.359619,877.517273 1696.670654,887.993652   C1656.335205,904.442932 1614.295410,914.123474 1571.007812,917.880188   C1545.212280,920.118896 1519.271118,921.837219 1493.399292,921.786621   C1446.493652,921.694885 1399.904663,916.756592 1353.613403,909.119141   C1250.895386,892.172119 1151.812256,862.226746 1054.810059,825.063721   C1019.147766,811.400940 984.010864,796.369995 948.593445,782.064209   C891.114746,758.847412 832.402100,739.697388 770.818176,730.966858   C749.168579,727.897644 727.221313,725.595032 705.390625,725.425293   C665.212524,725.112854 625.902039,731.275269 589.038818,748.397888   C566.531555,758.852417 546.862854,773.313232 529.581055,791.255615   C491.858521,830.420166 471.481628,878.075562 460.733582,930.453796   C458.602295,940.840149 457.852356,951.435608 452.992310,961.180603   C439.805878,987.621094 411.348511,1000.987732 381.882019,994.300903   C353.907166,987.952515 333.542664,963.615784 333.966827,934.701660   C334.164001,921.262207 337.610199,907.870422 339.687836,893.616638  z"
   id="path6" />
<path
   fill="#6EC0E3"
   opacity="1.000000"
   stroke="none"
   d=" M1475.495483,304.481720   C1488.100830,335.347473 1494.359375,366.476410 1494.586792,399.282928   C1495.006714,459.866272 1475.522095,512.950928 1436.524292,558.638794   C1394.293457,608.114380 1340.260132,636.699524 1275.416382,642.901062   C1207.707397,649.376709 1146.950562,630.920227 1094.723755,587.049988   C1046.089233,546.197144 1017.187378,493.938141 1009.774292,430.719757   C1000.190369,348.989471 1025.560181,278.883728 1085.063232,222.480484   C1130.747070,179.176712 1186.146851,157.426437 1249.587524,157.057770   C1309.987671,156.706757 1363.058350,176.240845 1409.233154,214.900803   C1438.308472,239.244156 1459.666748,269.366547 1475.495483,304.481720  M1310.074097,298.755768   C1262.455322,271.887787 1206.598145,279.457397 1168.056030,318.001953   C1118.801880,367.259186 1122.677368,448.272461 1177.364746,491.442505   C1216.750000,522.533142 1260.103638,527.181335 1305.214966,504.500336   C1351.071411,481.444641 1376.403931,432.046814 1366.667358,378.631104   C1360.378662,344.130432 1341.250488,317.870758 1310.074097,298.755768  z"
   id="path8" />
<path
   fill="#595959"
   opacity="1.000000"
   stroke="none"
   d=" M1835.348145,1509.449463   C1843.460938,1504.702148 1850.923828,1500.320801 1858.377808,1495.924316   C1900.167847,1471.275635 1940.109619,1496.288940 1950.394043,1528.826416   C1958.105347,1553.223145 1950.113281,1574.359985 1930.670044,1591.278076   C1915.914795,1604.117065 1898.392456,1612.342896 1880.808960,1620.385132   C1850.303223,1634.337402 1818.490601,1644.276123 1785.054565,1647.088501   C1734.411865,1651.348145 1684.467651,1647.417847 1636.804688,1628.095459   C1618.938477,1620.852539 1601.534302,1612.396606 1584.228638,1603.866455   C1569.145264,1596.431641 1557.138672,1584.668579 1544.593018,1573.728394   C1526.126953,1557.625732 1510.788208,1538.883179 1497.785522,1518.216064   C1479.473999,1489.110229 1467.578857,1457.400391 1461.788818,1423.618286   C1449.555786,1352.246460 1464.255615,1286.056519 1505.541504,1227.094604   C1539.267700,1178.928955 1584.324951,1143.492554 1639.599731,1121.864502   C1668.948120,1110.381226 1699.101929,1103.418213 1730.701660,1101.209351   C1796.346924,1096.620850 1856.553345,1113.688843 1913.654907,1144.428223   C1923.029785,1149.474976 1932.278442,1154.844971 1941.143555,1160.731079   C1957.158447,1171.364380 1969.293823,1184.792969 1972.760864,1204.810547   C1974.796631,1216.563477 1973.432129,1227.762695 1967.901489,1237.723145   C1954.039673,1262.687866 1928.193359,1276.527100 1899.084839,1270.745361   C1887.389038,1268.422485 1877.403320,1262.584717 1867.533203,1256.249390   C1826.599976,1229.974854 1782.252319,1215.680908 1733.166382,1219.795288   C1694.189209,1223.062378 1661.244751,1239.999756 1632.353394,1265.853394   C1605.821411,1289.595825 1588.272583,1318.564087 1583.311279,1353.801636   C1574.708374,1414.905884 1593.753540,1466.113281 1648.064697,1502.147705   C1671.028320,1517.383301 1697.802246,1524.206177 1725.143555,1528.079712   C1763.625000,1533.531616 1800.027954,1526.994995 1835.348145,1509.449463  z"
   id="path10" />
<path
   fill="#595959"
   opacity="1.000000"
   stroke="none"
   d=" M4262.679688,1650.764893   C4273.774414,1623.894043 4284.416992,1597.662720 4295.389160,1571.570190   C4299.320312,1562.221436 4298.580566,1553.970215 4293.706055,1544.948486   C4273.757812,1508.028076 4254.389648,1470.794189 4234.766602,1433.697388   C4207.358887,1381.883423 4179.856445,1330.118652 4152.513184,1278.270508   C4141.791992,1257.939819 4131.689941,1237.278320 4120.758789,1217.063110   C4109.558594,1196.349609 4111.580566,1164.570557 4135.551758,1145.045166   C4157.663574,1127.034546 4200.185059,1124.720825 4221.792969,1152.559692   C4227.676758,1160.140625 4233.031738,1168.285400 4237.549316,1176.747925   C4258.411133,1215.824707 4278.824707,1255.140747 4299.534180,1294.299316   C4312.300293,1318.438599 4325.300781,1342.454102 4338.223633,1366.510132   C4339.483398,1368.855957 4340.930176,1371.101929 4342.306641,1373.384766   C4346.828613,1380.886841 4353.258789,1384.803101 4362.221680,1384.039673   C4370.776367,1383.310913 4376.270996,1378.536255 4379.563477,1370.922852   C4383.528809,1361.752441 4387.418457,1352.549438 4391.305664,1343.345459   C4417.477051,1281.378662 4443.697266,1219.432129 4469.776855,1157.426758   C4480.934570,1130.897949 4504.366211,1117.082397 4534.616699,1119.598633   C4558.510254,1121.586060 4582.041504,1142.944702 4587.358398,1167.687500   C4589.590820,1178.079712 4588.175293,1188.337524 4584.602051,1198.176636   C4580.284180,1210.064209 4575.645508,1221.847412 4570.759277,1233.514282   C4549.533691,1284.195679 4528.123047,1334.800171 4506.862305,1385.467285   C4478.383789,1453.333984 4449.966309,1521.226440 4421.552734,1589.120117   C4398.667969,1643.802246 4375.647461,1698.428345 4353.104004,1753.250854   C4348.104004,1765.411377 4340.524902,1775.211792 4330.603027,1783.265869   C4307.664062,1801.885254 4268.234863,1800.188477 4246.833496,1774.599854   C4231.887207,1756.729736 4227.544922,1737.660522 4235.835938,1716.128662   C4243.368652,1696.566284 4251.732910,1677.323975 4259.727051,1657.939209   C4260.615723,1655.784058 4261.480957,1653.619263 4262.679688,1650.764893  z"
   id="path12" />
<path
   fill="#595959"
   opacity="1.000000"
   stroke="none"
   d=" M3807.737305,1618.327148   C3767.138916,1589.470337 3746.328613,1548.992310 3736.369629,1502.374878   C3732.712402,1485.256714 3730.851074,1467.488647 3730.537109,1449.974609   C3729.737305,1405.333252 3730.272949,1360.667969 3730.270020,1316.012329   C3730.268799,1294.281982 3724.184082,1287.451660 3702.562012,1288.274902   C3677.651611,1289.223267 3649.101318,1267.545044 3643.691406,1243.960815   C3638.833496,1222.783203 3641.861084,1203.707275 3658.290283,1187.958130   C3670.890869,1175.879272 3685.418701,1168.917358 3703.141602,1169.457520   C3705.138672,1169.518433 3707.147949,1169.546875 3709.138184,1169.403442   C3721.821533,1168.489136 3729.674805,1158.281494 3728.954590,1145.587524   C3727.504395,1120.020508 3726.648438,1094.416626 3725.869629,1068.818237   C3725.752686,1064.969482 3726.719727,1060.775024 3728.297852,1057.236450   C3742.865479,1024.571289 3772.168457,1010.606934 3805.095947,1020.018188   C3830.093506,1027.162720 3843.994141,1045.895630 3847.638672,1071.548706   C3849.270996,1083.040039 3849.590576,1094.730713 3850.242676,1106.345581   C3851.081055,1121.285400 3851.443848,1136.253906 3852.410156,1151.184326   C3853.192139,1163.267090 3860.108398,1170.335693 3872.425537,1172.155151   C3877.341064,1172.881470 3882.335449,1173.340454 3887.301270,1173.415039   C3908.951904,1173.740112 3930.608887,1173.699951 3952.255371,1174.171997   C3961.215332,1174.367554 3970.207275,1175.119263 3979.092773,1176.305176   C4005.240479,1179.795410 4027.570312,1205.504272 4027.728271,1231.875000   C4027.946289,1268.361938 3998.969238,1295.197021 3962.093262,1293.684082   C3933.829590,1292.524536 3905.499756,1293.003174 3877.232666,1291.903320   C3863.092773,1291.353027 3853.493408,1301.379150 3853.609619,1315.310059   C3853.956543,1356.963623 3853.573975,1398.622803 3853.837891,1440.277588   C3853.905029,1450.883545 3854.203125,1461.718384 3856.402588,1472.019287   C3858.879395,1483.616699 3863.073486,1494.952026 3867.528564,1505.994751   C3872.700195,1518.813477 3883.626953,1524.841797 3896.599609,1527.958618   C3911.258301,1531.480713 3925.732178,1529.728638 3940.170898,1526.927734   C3966.813477,1521.759399 3991.979248,1512.079956 4016.742188,1501.288574   C4031.799805,1494.726929 4047.366455,1493.840332 4062.517822,1499.273438   C4084.794678,1507.261597 4099.035645,1523.013672 4102.859863,1546.993042   C4106.545898,1570.104858 4097.150391,1587.859863 4079.613525,1601.993530   C4066.675293,1612.420532 4050.977539,1617.558350 4035.845703,1623.466675   C4005.976562,1635.129150 3975.208740,1644.062988 3943.170166,1646.915161   C3910.526367,1649.821411 3877.718994,1650.311768 3846.526855,1638.057373   C3833.305420,1632.862915 3821.038330,1625.239868 3807.737305,1618.327148  z"
   id="path14" />
<path
   fill="#595959"
   opacity="1.000000"
   stroke="none"
   d=" M2134.276367,1293.555664   C2127.840088,1288.322388 2120.953369,1288.036499 2113.827637,1288.025757   C2087.957275,1287.986694 2069.516602,1275.511719 2057.630127,1253.115845   C2048.176270,1235.302979 2049.446777,1204.850952 2069.503906,1187.158813   C2082.689209,1175.528076 2096.961914,1169.104004 2114.622559,1169.358276   C2132.955078,1169.622559 2141.083008,1159.901123 2139.693604,1141.587402   C2138.085205,1120.386841 2137.710449,1099.075195 2135.561768,1077.937744   C2132.886230,1051.620117 2159.645020,1019.079956 2191.690674,1017.470154   C2227.369385,1015.677795 2254.189209,1037.428955 2258.102783,1073.392090   C2260.579834,1096.155029 2261.071289,1119.140869 2262.234863,1142.037842   C2263.508789,1167.100098 2269.685059,1172.696045 2294.542236,1173.377686   C2316.845947,1173.989380 2339.173828,1173.675781 2361.482178,1174.175171   C2371.105225,1174.390503 2380.950195,1174.531372 2390.267334,1176.614868   C2412.616943,1181.612427 2428.881836,1194.833862 2435.703613,1217.062134   C2442.762939,1240.065552 2437.548828,1260.590576 2419.186035,1276.922363   C2405.704590,1288.912598 2390.389648,1294.759277 2371.739014,1293.762329   C2343.840088,1292.271118 2315.847900,1292.432983 2287.892822,1292.131104   C2272.132080,1291.960815 2264.370605,1299.663696 2264.291504,1315.051880   C2264.073730,1357.359131 2263.745117,1399.666992 2263.799072,1441.973999   C2263.826904,1463.804810 2267.423584,1484.904785 2277.206299,1504.856934   C2283.474854,1517.641602 2293.314697,1524.666626 2306.706787,1527.906006   C2321.683838,1531.528198 2336.507324,1529.835083 2351.261475,1526.909668   C2378.529053,1521.502808 2403.812744,1510.330200 2429.606201,1500.391602   C2469.786133,1484.909424 2506.015381,1509.843872 2512.693848,1543.483154   C2517.064209,1565.497437 2510.490967,1583.962158 2493.562988,1599.100830   C2482.550781,1608.949463 2469.212891,1613.991333 2456.058350,1619.532349   C2423.367432,1633.302856 2389.539795,1643.545044 2354.200195,1646.914673   C2318.195312,1650.347656 2282.249023,1649.672485 2248.142334,1634.914673   C2207.023438,1617.122803 2178.288574,1587.007446 2160.632812,1546.113892   C2149.455566,1520.225952 2142.520020,1493.273315 2141.699951,1464.958496   C2141.102783,1444.348145 2140.325684,1423.729736 2140.383545,1403.117065   C2140.465576,1373.838501 2141.250000,1344.562134 2141.714355,1315.284424   C2141.838379,1307.448364 2140.725586,1299.987305 2134.276367,1293.555664  z"
   id="path16" />
<path
   fill="#595959"
   opacity="1.000000"
   stroke="none"
   d=" M3327.716553,1170.380371   C3328.183838,1181.177124 3325.218750,1190.413452 3321.355957,1199.275146   C3310.713379,1223.690186 3299.673828,1247.931763 3288.887451,1272.284668   C3251.534424,1356.618164 3214.265137,1440.988892 3176.870605,1525.304077   C3163.911133,1554.525146 3151.373535,1583.964722 3137.348389,1612.671997   C3126.551270,1634.771606 3108.897949,1647.754028 3082.871094,1648.285400   C3060.520996,1648.741455 3043.560791,1640.027344 3030.911133,1622.195801   C3026.492676,1615.967773 3022.358887,1609.466064 3018.786621,1602.722900   C3006.943604,1580.366455 2995.571289,1557.760620 2983.733154,1535.401611   C2961.760986,1493.902222 2939.579102,1452.513916 2917.499512,1411.071411   C2890.565918,1360.518188 2863.615967,1309.973511 2836.741455,1259.389038   C2828.146973,1243.211914 2819.541748,1227.033691 2811.338623,1210.657104   C2788.530029,1165.121216 2829.101807,1125.357422 2864.010986,1125.130859   C2891.830078,1124.950439 2910.211914,1137.789307 2922.671631,1160.906128   C2949.058105,1209.862183 2974.965088,1259.076172 3001.182617,1308.123657   C3018.922363,1341.310669 3036.843506,1374.400635 3054.724609,1407.511963   C3056.301514,1410.432251 3057.819336,1413.509888 3059.987305,1415.963989   C3069.111572,1426.292358 3084.956543,1424.679565 3092.181396,1412.361816   C3096.545410,1404.921265 3099.999268,1396.916504 3103.501465,1389.005737   C3127.763428,1334.199585 3151.877197,1279.327881 3176.152344,1224.527588   C3187.075439,1199.870117 3197.981689,1175.198120 3209.427002,1150.781738   C3216.733887,1135.193848 3228.048096,1123.404907 3244.740234,1117.311401   C3288.150635,1101.463989 3325.572754,1133.359741 3327.716553,1170.380371  z"
   id="path18" />
<path
   fill="#595959"
   opacity="1.000000"
   stroke="none"
   d=" M2643.150391,1134.181763   C2659.601074,1132.446533 2674.893555,1133.004395 2688.088379,1142.679321   C2704.589600,1154.779053 2716.459473,1169.704224 2715.835693,1191.728149   C2715.591064,1200.375610 2716.087402,1209.045166 2716.282227,1217.703735   C2716.948486,1247.317017 2717.588379,1276.931152 2718.320068,1306.542725   C2718.911377,1330.490112 2719.664551,1354.433472 2720.268066,1378.380493   C2720.988770,1406.995117 2721.626221,1435.611816 2722.300781,1464.227539   C2722.959717,1492.174194 2723.568604,1520.122070 2724.300781,1548.066772   C2724.657715,1561.691650 2725.411133,1575.307007 2725.693359,1588.932739   C2726.227051,1614.681763 2712.559082,1632.381836 2690.680908,1642.439697   C2658.928955,1657.036621 2628.024658,1646.383423 2609.521484,1616.665039   C2603.378906,1606.799072 2602.949463,1595.079102 2602.408936,1583.825928   C2601.689941,1568.861328 2602.008789,1553.849609 2601.699463,1538.861938   C2601.094971,1509.579468 2600.396240,1480.298706 2599.675293,1451.018921   C2599.069580,1426.401245 2598.312744,1401.787354 2597.737549,1377.169067   C2596.999023,1345.557739 2596.383789,1313.943604 2595.699219,1282.331055   C2595.051025,1252.384521 2595.535645,1222.354004 2593.356201,1192.518799   C2591.614746,1168.682129 2611.585938,1142.404785 2635.498535,1136.030640   C2637.750732,1135.430176 2640.011230,1134.860962 2643.150391,1134.181763  z"
   id="path20" />
<path
   fill="#595959"
   opacity="1.000000"
   stroke="none"
   d=" M3416.286621,1473.450439   C3416.090576,1450.180542 3416.067871,1427.857544 3415.675049,1405.541016   C3415.177246,1377.260498 3414.364746,1348.985840 3413.713867,1320.707886   C3413.031982,1291.097900 3412.435547,1261.485840 3411.690918,1231.877441   C3411.356445,1218.588013 3411.327881,1205.254150 3410.149170,1192.030518   C3407.858887,1166.337769 3432.553711,1137.249023 3461.725098,1134.015137   C3492.940430,1130.554443 3511.293213,1140.963745 3527.554932,1167.147339   C3529.764160,1170.704102 3531.077881,1175.156250 3531.608643,1179.345459   C3532.733887,1188.230103 3533.432373,1197.205933 3533.652344,1206.160278   C3534.094238,1224.140747 3533.949707,1242.134766 3534.319092,1260.117676   C3534.852051,1286.061157 3535.627686,1311.999878 3536.298340,1337.940552   C3536.960205,1363.549438 3537.643311,1389.157715 3538.275146,1414.767334   C3538.973145,1443.042725 3539.652588,1471.318481 3540.287354,1499.595215   C3540.982178,1530.535156 3541.502441,1561.479492 3542.336182,1592.415527   C3542.648682,1604.014771 3538.583252,1613.738525 3531.824463,1622.899048   C3510.751953,1651.459839 3475.015869,1654.147339 3452.487793,1641.463257   C3433.406494,1630.719849 3421.193359,1614.932251 3420.189697,1592.061890   C3419.621094,1579.113647 3418.614258,1566.177612 3418.342529,1553.224854   C3417.902344,1532.243042 3417.989014,1511.250610 3417.661865,1490.265625   C3417.579346,1484.971313 3416.770508,1479.688232 3416.286621,1473.450439  z"
   id="path22" />
<path
   fill="#585858"
   opacity="1.000000"
   stroke="none"
   d=" M2591.463867,1054.572510   C2556.666992,1021.510925 2565.904053,966.418579 2605.314697,940.311890   C2628.604248,924.884216 2653.767090,922.644592 2678.257324,935.509521   C2704.760498,949.432068 2719.249023,972.426697 2717.550293,1003.165649   C2715.904785,1032.941650 2699.434326,1053.675171 2673.162354,1065.857300   C2644.332275,1079.225464 2616.812012,1075.435181 2591.463867,1054.572510  z"
   id="path24" />
<path
   fill="#585858"
   opacity="1.000000"
   stroke="none"
   d=" M3474.769043,928.491333   C3498.515381,932.719788 3514.891602,945.792114 3526.099365,965.643005   C3542.302246,994.340637 3535.259521,1031.853760 3508.919434,1054.144531   C3480.534180,1078.165894 3439.764160,1080.546143 3410.956543,1056.298340   C3394.861328,1042.750854 3387.799316,1025.500000 3387.245361,1003.813660   C3386.492920,974.347412 3410.483887,941.924866 3438.446289,931.881470   C3450.002441,927.730774 3461.902100,927.660461 3474.769043,928.491333  z"
   id="path26" />
<path
   fill="#6BBCDF"
   opacity="1.000000"
   stroke="none"
   d=" M2972.238525,2124.202637   C2927.313232,2149.857178 2869.030762,2145.110596 2829.680176,2106.517578   C2785.733154,2063.416748 2783.860840,1996.377197 2824.514404,1950.697388   C2877.286621,1891.400146 2975.178223,1901.495850 3014.760254,1970.067383   C3043.747559,2020.285278 3030.146240,2084.370361 2980.491211,2119.103271   C2978.042480,2120.816162 2975.446777,2122.319336 2972.238525,2124.202637  M2983.027100,2086.013916   C3020.879639,2044.737061 3011.765381,1979.855225 2963.963379,1949.396240   C2947.782471,1939.085815 2929.933838,1933.778442 2911.104980,1934.321167   C2884.531006,1935.087036 2861.268555,1944.867188 2843.092285,1965.015137   C2822.094482,1988.290771 2813.702148,2015.446045 2821.219971,2045.989624   C2829.974854,2081.561279 2853.030029,2104.767822 2888.392822,2113.930664   C2924.375732,2123.253662 2955.963867,2113.911133 2983.027100,2086.013916  z"
   id="path28" />
<path
   fill="#6CBFE1"
   opacity="1.000000"
   stroke="none"
   d=" M3578.934570,2134.041260   C3562.376465,2136.815186 3550.295410,2130.687500 3538.828369,2120.191162   C3523.428467,2106.095459 3506.799561,2093.343750 3490.732910,2079.973877   C3487.571289,2077.342529 3484.319824,2075.698730 3479.927734,2075.941406   C3473.051270,2076.320801 3466.138428,2076.041992 3458.594238,2076.041992   C3458.594238,2095.613037 3458.594238,2114.156738 3458.594238,2133.365723   C3450.832275,2133.365723 3443.742920,2133.365723 3436.160645,2133.365723   C3436.160645,2061.452637 3436.160645,1989.727295 3436.160645,1918.193481   C3437.276123,1917.748901 3437.888672,1917.288086 3438.497803,1917.293091   C3464.777588,1917.509277 3491.194336,1916.163452 3517.304932,1918.393311   C3556.787598,1921.765259 3592.881348,1954.718018 3589.496338,2002.030884   C3587.100098,2035.519409 3568.195557,2057.599365 3537.574219,2070.058594   C3532.434082,2072.150146 3526.951904,2073.402344 3520.139648,2075.500977   C3531.168945,2086.374268 3543.212891,2094.885254 3554.382324,2104.356934   C3565.498535,2113.783447 3576.847412,2122.935547 3589.441895,2133.318848   C3585.279785,2133.630371 3582.534180,2133.835693 3578.934570,2134.041260  M3552.559814,2033.474854   C3565.444824,2018.531616 3569.449707,2001.312622 3564.647705,1982.362305   C3557.326416,1953.468750 3530.444580,1940.709351 3509.275879,1940.109741   C3494.976562,1939.704712 3480.656494,1939.995850 3466.346191,1940.066528   C3463.829346,1940.078979 3461.314697,1940.540161 3458.794189,1940.794556   C3458.794189,1978.677979 3458.794189,2015.826294 3458.794189,2053.167725   C3475.758301,2053.167725 3492.273682,2053.439453 3508.775879,2053.091553   C3525.452148,2052.739990 3539.604248,2046.020142 3552.559814,2033.474854  z"
   id="path30" />
<path
   fill="#6BBCDE"
   opacity="1.000000"
   stroke="none"
   d=" M3385.911133,2112.005859   C3392.817383,2112.005859 3398.739746,2112.005859 3405.167725,2112.005859   C3405.167725,2119.427002 3405.167725,2125.959473 3405.167725,2132.524170   C3398.188965,2134.458984 3268.179688,2134.860107 3256.742432,2132.879639   C3256.742432,2061.431641 3256.742432,1989.905884 3256.742432,1917.723145   C3306.077148,1917.723145 3355.241455,1917.723145 3405.054932,1917.723145   C3405.054932,1924.745361 3405.054932,1931.578979 3405.054932,1939.822266   C3395.268311,1940.353516 3385.074951,1939.972046 3374.911621,1940.039307   C3364.249268,1940.109985 3353.586182,1940.055054 3342.923584,1940.055054   C3332.593994,1940.055054 3322.264648,1940.055054 3311.935059,1940.055054   C3301.647461,1940.055054 3291.360107,1940.055054 3280.391113,1940.055054   C3280.391113,1965.014404 3280.391113,1989.434937 3280.391113,2015.043091   C3320.677002,2015.043091 3360.796875,2015.043091 3401.297852,2015.043091   C3401.297852,2022.771118 3401.297852,2029.317139 3401.297852,2036.722290   C3361.063232,2036.722290 3321.180420,2036.722290 3281.553711,2036.722290   C3279.300293,2044.459106 3278.654053,2093.290771 3280.446533,2112.005859   C3315.189941,2112.005859 3350.058594,2112.005859 3385.911133,2112.005859  z"
   id="path32" />
<path
   fill="#6BBCDE"
   opacity="1.000000"
   stroke="none"
   d=" M3956.347656,1961.744629   C3969.266357,1991.291992 3967.348145,2018.909058 3948.057861,2044.132324   C3931.892822,2065.269287 3909.284180,2074.870850 3883.129150,2075.934326   C3867.198730,2076.582031 3851.220703,2076.053955 3834.085449,2076.053955   C3833.146484,2095.124756 3834.140381,2113.924561 3833.501953,2133.350098   C3825.980957,2133.350098 3818.832031,2133.350098 3810.986572,2133.350098   C3810.986572,2061.816406 3810.986572,1990.081543 3810.986572,1917.618652   C3813.844727,1917.437500 3816.763672,1917.098755 3819.683105,1917.092041   C3839.992920,1917.045410 3860.319336,1916.539062 3880.608398,1917.187988   C3913.444580,1918.238403 3939.587891,1931.493286 3956.347656,1961.744629  M3872.563477,2054.010254   C3882.065430,2052.670654 3891.997803,2052.657959 3900.987549,2049.740479   C3927.149658,2041.249512 3940.659180,2022.483521 3941.251953,1997.521484   C3941.790039,1974.856445 3931.121094,1957.471558 3908.199219,1946.057373   C3899.503906,1941.727417 3890.105469,1939.778442 3880.207275,1939.972290   C3864.985596,1940.270264 3849.753662,1940.050659 3834.282959,1940.050659   C3834.282959,1978.473511 3834.282959,2015.890869 3834.282959,2054.010254   C3846.788330,2054.010254 3858.719727,2054.010254 3872.563477,2054.010254  z"
   id="path34" />
<path
   fill="#6CBEE0"
   opacity="1.000000"
   stroke="none"
   d=" M4169.979980,1989.898682   C4187.960938,2038.135132 4205.700684,2085.630859 4223.671875,2133.746582   C4214.968262,2133.746582 4207.363770,2133.746582 4198.960938,2133.746582   C4192.836914,2117.581299 4186.647461,2101.244141 4180.330078,2084.568848   C4146.852051,2084.568848 4113.692871,2084.568848 4080.047363,2084.568848   C4073.907959,2100.812500 4067.710938,2117.209229 4061.456299,2133.757812   C4053.558838,2133.757812 4045.955566,2133.757812 4036.760010,2133.757812   C4063.875732,2061.211426 4090.728027,1989.370605 4117.747559,1917.081665   C4122.322754,1917.081665 4126.263672,1917.081787 4130.204590,1917.081787   C4134.151855,1917.081787 4138.099121,1917.081665 4142.588867,1917.081665   C4151.763184,1941.436890 4160.750977,1965.297363 4169.979980,1989.898682  M4132.749512,1956.675903   C4132.148926,1955.325806 4131.548340,1953.975830 4130.025879,1950.553345   C4115.970703,1988.243164 4102.647461,2023.971313 4088.852783,2060.962402   C4117.180664,2061.106934 4143.794922,2061.518311 4171.493652,2060.728271   C4158.432617,2025.552002 4145.898926,1991.794189 4132.749512,1956.675903  z"
   id="path36" />
<path
   fill="#6CBEE0"
   opacity="1.000000"
   stroke="none"
   d=" M3786.715088,2133.704590   C3778.898438,2133.970459 3771.910400,2133.970459 3764.172607,2133.970459   C3758.008057,2117.593750 3751.835449,2101.195068 3745.539795,2084.469727   C3712.221924,2084.469727 3679.027588,2084.469727 3645.246338,2084.469727   C3639.035645,2100.940674 3632.865967,2117.302979 3626.675049,2133.720947   C3618.428711,2133.720947 3610.835449,2133.720947 3601.905029,2133.720947   C3628.975830,2061.334229 3655.793701,1989.623413 3682.728760,1917.599609   C3691.063477,1917.599609 3698.975098,1917.599609 3707.769287,1917.599609   C3712.230469,1929.125488 3717.003174,1941.100708 3721.514648,1953.173828   C3742.552979,2009.472900 3763.538330,2065.791992 3784.466064,2122.132080   C3785.820557,2125.779053 3786.532715,2129.664551 3786.715088,2133.704590  M3660.595703,2061.134277   C3673.222900,2061.135742 3685.850830,2061.204346 3698.477295,2061.119629   C3710.872803,2061.036865 3723.300781,2061.517822 3736.769287,2060.709961   C3722.607666,2023.730469 3709.985107,1987.904663 3695.201172,1950.473633   C3681.017090,1988.494385 3667.756104,2024.040649 3654.302734,2060.102783   C3656.458740,2060.573975 3657.696533,2060.844727 3660.595703,2061.134277  z"
   id="path38" />
<path
   fill="#6BBDDF"
   opacity="1.000000"
   stroke="none"
   d=" M2653.341797,2116.872070   C2666.948486,2114.778320 2678.912842,2111.128906 2688.296631,2101.708740   C2702.344482,2087.606445 2701.157715,2066.026123 2685.595703,2053.745361   C2675.303711,2045.623413 2663.194824,2040.949707 2651.285889,2035.850342   C2637.586670,2029.984497 2623.764893,2024.285767 2610.544189,2017.454346   C2597.200439,2010.559204 2587.103027,2000.056396 2582.068848,1985.463013   C2572.750977,1958.451416 2587.948730,1928.622559 2616.179932,1917.962646   C2643.480469,1907.653931 2669.740723,1912.230103 2695.569824,1923.187744   C2700.725342,1925.374878 2705.611084,1928.197632 2711.676514,1931.260254   C2707.678711,1937.873901 2703.995850,1943.966187 2700.530029,1949.699585   C2687.531250,1945.178955 2675.624268,1939.984863 2663.188721,1936.969971   C2646.226318,1932.857422 2629.706543,1934.200806 2614.729492,1945.090576   C2601.989258,1954.354126 2596.085449,1977.437744 2612.142578,1989.862793   C2620.187256,1996.087769 2629.269043,2001.221069 2638.457275,2005.656250   C2649.811279,2011.136963 2662.053711,2014.785645 2673.369873,2020.332886   C2683.453125,2025.275757 2693.686523,2030.642578 2702.305176,2037.710449   C2730.934326,2061.188721 2725.487061,2106.955811 2694.543213,2126.416992   C2680.332764,2135.354248 2664.702881,2139.320312 2648.235596,2139.960205   C2625.872314,2140.829834 2604.629883,2136.126221 2584.915039,2125.270996   C2582.010254,2123.671387 2579.282959,2121.749268 2576.470947,2119.980225   C2575.351562,2119.275879 2574.224854,2118.582275 2572.707764,2117.639160   C2578.455811,2111.408936 2583.341553,2106.113525 2588.445801,2100.581055   C2608.033447,2114.977051 2629.693115,2118.191650 2653.341797,2116.872070  z"
   id="path40" />
<path
   fill="#6DBFE1"
   opacity="1.000000"
   stroke="none"
   d=" M2493.908936,1919.002930   C2494.231445,1926.171387 2494.231445,1932.475098 2494.231445,1939.821533   C2452.433594,1939.821533 2410.961670,1939.821533 2368.925293,1939.821533   C2368.925293,1965.022949 2368.925293,1989.186279 2368.925293,2014.459595   C2389.145264,2015.859619 2409.326660,2014.867554 2429.467773,2015.053467   C2449.415283,2015.237549 2469.365723,2015.093872 2489.824707,2015.093872   C2489.824707,2022.494629 2489.824707,2029.033081 2489.824707,2036.864746   C2449.668701,2036.864746 2409.572510,2036.864746 2368.675293,2036.864746   C2368.675293,2069.665527 2368.675293,2101.206787 2368.675293,2133.390137   C2360.768555,2133.390137 2353.673584,2133.390137 2346.108398,2133.390137   C2346.108398,2061.581543 2346.108398,1990.048828 2346.108398,1917.993042   C2348.064697,1917.686646 2349.934814,1917.140015 2351.805420,1917.138062   C2397.135742,1917.089966 2442.465820,1917.087036 2487.796143,1917.143311   C2489.726807,1917.145630 2491.656250,1917.791748 2493.908936,1919.002930  z"
   id="path42" />
<path
   fill="#6BBDDF"
   opacity="1.000000"
   stroke="none"
   d=" M3122.305664,2127.461914   C3122.303223,2064.643555 3122.303223,2002.778931 3122.303223,1940.123901   C3095.132324,1940.123901 3068.951172,1940.123901 3042.209961,1940.123901   C3042.209961,1932.222290 3042.209961,1925.110107 3042.209961,1917.533691   C3103.487305,1917.533691 3164.349121,1917.533691 3225.786377,1917.533691   C3225.786377,1924.773315 3225.786377,1931.651855 3225.786377,1939.669189   C3199.669922,1939.669189 3173.243652,1939.669189 3145.789551,1939.669189   C3145.789551,2004.880005 3145.789551,2068.970459 3145.789551,2134.009033   C3138.532227,2134.009033 3132.290771,2134.017822 3126.049561,2134.005859   C3122.051758,2133.998291 3122.318604,2131.107666 3122.305664,2127.461914  z"
   id="path44" />
<path
   fill="#6AB9DB"
   opacity="1.000000"
   stroke="none"
   d=" M2524.276611,2093.999268   C2524.276611,2034.805420 2524.276611,1976.611328 2524.276611,1917.727173   C2531.994385,1917.727173 2539.153809,1917.727173 2547.023438,1917.727173   C2547.023438,1989.493774 2547.023438,2061.119385 2547.023438,2133.409424   C2539.916748,2133.409424 2532.770996,2133.409424 2524.276611,2133.409424   C2524.276611,2120.698730 2524.276611,2107.848877 2524.276611,2093.999268  z"
   id="path46" />
<path
   fill="#6AB9DB"
   opacity="1.000000"
   stroke="none"
   d=" M2746.276611,2041.999756   C2746.276611,2000.119507 2746.276611,1959.239136 2746.276611,1917.698730   C2754.082520,1917.698730 2761.241699,1917.698730 2769.066650,1917.698730   C2769.066650,1989.558838 2769.066650,2061.191162 2769.066650,2134.071777   C2765.483398,2134.071777 2761.939941,2134.071533 2758.396484,2134.071533   C2754.779785,2134.071533 2751.163330,2134.071777 2746.276611,2134.071777   C2746.276611,2103.298584 2746.276611,2073.149170 2746.276611,2041.999756  z"
   id="path48" />
<path
   fill="#6AB9DB"
   opacity="1.000000"
   stroke="none"
   d=" M3990.276611,1985.999756   C3990.276611,1962.764038 3990.276611,1940.528320 3990.276611,1917.668091   C3998.177979,1917.668091 4005.337158,1917.668091 4013.113281,1917.668091   C4013.113281,1989.629028 4013.113281,2061.269287 4013.113281,2133.491211   C4005.766113,2133.491211 3998.625488,2133.491211 3990.276611,2133.491211   C3990.276611,2084.569580 3990.276611,2035.784790 3990.276611,1985.999756  z"
   id="path50" />






</svg>
