<svg version="1.1" id="Layer_1" xmlns="http://www.w3.org/2000/svg" xmlns:xlink="http://www.w3.org/1999/xlink" x="0px" y="0px"
	 width="100%" viewBox="0 0 1515 1722" enable-background="new 0 0 1515 1722" xml:space="preserve">
<path fill="#FFFFFF" opacity="1.000000" stroke="none" 
	d="
M751.000000,1723.000000 
	C500.666718,1723.000000 250.833420,1723.000000 1.000101,1723.000000 
	C1.000067,1149.000122 1.000067,575.000305 1.000033,1.000332 
	C505.999756,1.000221 1010.999512,1.000221 1515.999512,1.000111 
	C1515.999634,574.999695 1515.999634,1148.999390 1515.999756,1722.999512 
	C1261.166626,1723.000000 1006.333313,1723.000000 751.000000,1723.000000 
M794.130432,291.963165 
	C794.157349,298.638245 794.184265,305.313293 794.029236,312.878326 
	C794.356201,316.241638 794.683167,319.604919 795.008850,323.822388 
	C797.797607,342.204590 802.116272,360.058746 809.428955,377.342224 
	C818.738159,399.344208 831.652283,418.689453 848.039612,435.854279 
	C860.188782,448.579926 873.622009,459.870270 888.893188,468.597687 
	C904.115723,477.297363 919.976746,484.887115 937.312561,488.495758 
	C949.456238,491.023621 961.731018,492.921722 974.589050,495.631470 
	C983.394653,495.446350 992.200195,495.261230 1001.906128,495.020355 
	C1024.103394,493.404266 1045.416016,488.009491 1065.730347,479.085999 
	C1090.364624,468.264954 1111.936768,452.808075 1130.126099,433.032684 
	C1148.345825,413.224060 1162.076660,390.417328 1170.865234,364.962585 
	C1176.385254,348.974426 1179.773804,332.327454 1180.681030,315.387817 
	C1181.768799,295.078217 1180.310425,275.030304 1175.394653,255.066895 
	C1171.558472,239.487930 1166.399902,224.503494 1158.479370,210.814148 
	C1151.025269,197.930893 1142.179932,185.710403 1132.818115,174.109039 
	C1121.019775,159.488358 1106.496704,147.622147 1090.508789,137.684738 
	C1076.550659,129.008835 1061.728027,122.348633 1046.054688,117.174652 
	C1030.941162,112.185463 1015.513794,109.463226 999.826233,108.358597 
	C973.687561,106.518059 948.051758,110.125160 923.402649,118.889076 
	C904.838501,125.489510 887.444519,134.603470 871.641418,146.646805 
	C854.015503,160.079254 838.822632,175.763260 826.537109,194.166016 
	C821.684204,201.435242 816.870117,208.899841 813.368225,216.860458 
	C808.522278,227.876205 804.327942,239.269867 800.989380,250.829468 
	C798.154846,260.643860 796.928833,270.922852 794.466919,281.611115 
	C794.371094,284.751343 794.275208,287.891571 794.130432,291.963165 
M1171.589600,716.700500 
	C1177.027710,716.800354 1182.468262,717.042236 1187.903320,716.955261 
	C1192.282593,716.885254 1196.655640,716.417786 1201.959351,716.032593 
	C1218.153564,714.769958 1234.395874,713.931274 1250.526245,712.104736 
	C1262.520630,710.746521 1274.369019,708.102478 1286.284180,706.040955 
	C1306.118774,702.609009 1325.240723,696.550293 1343.517822,688.386902 
	C1357.489136,682.146667 1370.893799,674.502197 1384.084229,666.694519 
	C1393.570190,661.079346 1401.812256,653.695679 1407.978638,644.272461 
	C1414.502075,634.303589 1416.143555,623.505859 1415.130981,611.749329 
	C1413.824219,596.576233 1406.581909,584.605530 1394.566040,576.629761 
	C1376.529175,564.657471 1357.238647,564.401978 1338.424683,575.840088 
	C1334.805908,578.040222 1332.002319,581.571289 1328.402588,583.814575 
	C1310.361816,595.057556 1290.599121,602.310120 1269.966553,606.728455 
	C1247.267456,611.589294 1224.270752,614.890442 1200.054199,615.065002 
	C1189.048096,615.119080 1178.042114,615.173157 1166.099731,615.144775 
	C1149.537109,614.076843 1132.916382,613.550720 1116.429565,611.778076 
	C1101.951050,610.221436 1087.566162,607.566956 1073.242554,604.855164 
	C1055.522339,601.500366 1037.885864,597.687683 1020.258362,593.864685 
	C1012.819153,592.251404 1005.476501,590.175659 998.122986,588.188049 
	C986.303589,584.993408 974.467651,581.846985 962.721558,578.397888 
	C953.044617,575.556396 943.467041,572.368958 933.882812,569.220886 
	C920.389404,564.788818 906.850647,560.474792 893.480286,555.693665 
	C881.170044,551.291626 869.016663,546.439453 856.866150,541.604736 
	C839.364075,534.640686 821.909424,527.556030 804.468506,520.439697 
	C793.136597,515.815979 782.002075,510.674225 770.533264,506.428894 
	C754.912109,500.646576 739.099243,495.368805 723.287048,490.120361 
	C711.831177,486.317871 700.386780,482.324371 688.680542,479.468445 
	C670.189575,474.957184 651.578796,470.785675 632.839478,467.489258 
	C616.366089,464.591431 599.646851,463.091370 582.413391,460.427002 
	C577.939453,460.354614 573.465576,460.282227 568.058533,460.139252 
	C557.384033,460.152679 546.709473,460.166107 535.120789,460.007721 
	C531.054016,460.321350 526.987183,460.635010 522.036194,460.970947 
	C512.318604,462.152039 502.467285,462.687744 492.914917,464.666534 
	C478.837341,467.582825 464.703857,470.719879 451.090729,475.253815 
	C436.562927,480.092407 422.079590,485.650604 408.557220,492.759521 
	C394.584961,500.104980 381.412048,509.167480 368.582764,518.438293 
	C354.119659,528.889709 341.477814,541.504761 329.955994,555.178467 
	C317.054596,570.489441 305.265259,586.634399 296.367523,604.580566 
	C288.536591,620.375061 280.592133,636.284790 274.817749,652.881287 
	C268.476990,671.105591 264.252289,690.098572 259.678406,708.895935 
	C255.352905,726.672729 257.523071,743.368713 269.991516,757.805603 
	C279.828461,769.195496 292.402588,775.298035 307.192780,775.748657 
	C313.259705,775.933472 319.635406,773.960876 325.481689,771.877991 
	C341.410950,766.202698 351.590179,754.751770 355.849854,738.467163 
	C357.941925,730.469177 358.200165,721.963440 360.568298,714.071594 
	C364.888702,699.673767 369.707794,685.385193 375.155884,671.376587 
	C381.522339,655.006531 390.534515,640.052490 401.433960,626.188965 
	C423.419312,598.224731 451.283295,579.384949 485.450653,569.140381 
	C507.027161,562.670898 529.080627,561.226379 551.223572,560.182251 
	C560.396118,559.749756 569.660461,561.829895 578.888672,561.888550 
	C595.971130,561.997131 612.539429,565.294861 629.119385,568.772339 
	C635.764526,570.166077 642.478027,571.283752 649.053101,572.950439 
	C660.607239,575.879150 672.161682,578.861450 683.559998,582.333435 
	C693.675720,585.414734 703.602600,589.126648 713.570374,592.679504 
	C723.229614,596.122375 732.924194,599.493286 742.441772,603.299866 
	C755.354431,608.464355 768.071106,614.117004 780.949219,619.370422 
	C795.977417,625.500916 811.052979,631.519470 826.176208,637.411377 
	C837.906799,641.981750 849.678467,646.463257 861.547913,650.656006 
	C874.777527,655.329163 888.126831,659.665771 901.445740,664.083130 
	C911.340942,667.365051 921.192017,670.815552 931.203369,673.703491 
	C946.946228,678.244812 962.773071,682.507385 978.628723,686.641296 
	C992.740295,690.320496 1006.859863,694.039124 1021.120056,697.059631 
	C1037.973999,700.629517 1054.949219,703.666748 1071.935791,706.558655 
	C1084.364746,708.674561 1096.849854,710.708984 1109.394409,711.842957 
	C1129.869995,713.693726 1150.414673,714.780823 1171.589600,716.700500 
M585.902466,987.394836 
	C594.857788,979.004395 603.847717,970.650513 612.760010,962.214600 
	C625.271240,950.372009 637.715515,938.458862 650.205261,926.593506 
	C667.225952,910.423645 684.271301,894.279724 701.289185,878.106873 
	C711.696838,868.216003 722.018005,858.233521 732.483093,848.404053 
	C739.063110,842.223694 748.724915,842.047974 754.830139,848.080139 
	C761.094666,854.269714 767.098755,860.723816 773.186707,867.090881 
	C788.387756,882.988770 803.559570,898.914734 818.766663,914.806763 
	C829.983215,926.528442 841.250549,938.201538 852.471069,949.919495 
	C867.463562,965.576904 882.415710,981.272827 897.417480,996.921265 
	C908.138855,1008.104919 918.971069,1019.182739 929.651245,1030.405273 
	C948.375183,1050.079956 966.958984,1069.888428 985.736450,1089.511597 
	C991.315857,1095.342285 994.560425,1109.553589 991.401306,1116.820068 
	C985.936829,1129.389282 976.424500,1135.591675 962.622559,1135.584961 
	C855.467407,1135.531982 748.312195,1135.556152 641.157043,1135.554932 
	C632.657654,1135.554810 624.370239,1136.083130 616.482910,1140.082520 
	C605.190491,1145.808472 596.658630,1154.515381 592.429565,1165.954468 
	C588.806763,1175.753662 588.130615,1186.080444 591.498474,1197.197754 
	C596.721741,1214.439941 616.659119,1231.124390 636.250916,1231.089966 
	C743.572388,1230.901367 850.894531,1230.918091 958.216125,1231.068359 
	C980.032837,1231.098999 1000.792114,1227.882446 1020.722595,1218.159790 
	C1037.135498,1210.153198 1050.595459,1198.870850 1061.713623,1184.991455 
	C1073.689453,1170.041504 1081.389404,1152.940063 1085.494385,1133.808105 
	C1088.569580,1119.476440 1089.880859,1105.429199 1087.815918,1091.156128 
	C1084.410889,1067.620239 1075.737305,1046.046143 1059.695068,1028.276123 
	C1042.554565,1009.289551 1024.545898,991.085754 1006.878357,972.576416 
	C996.100586,961.284973 985.205139,950.105774 974.446960,938.795837 
	C962.013245,925.724426 949.730103,912.509583 937.270081,899.463440 
	C929.300171,891.118591 921.021790,883.067932 913.068787,874.707397 
	C895.116577,855.835083 877.355530,836.780762 859.374268,817.936462 
	C844.229919,802.065063 828.855469,786.413452 813.637939,770.611511 
	C802.853821,759.413086 792.019165,748.257751 781.470276,736.840149 
	C771.759827,726.330017 759.405823,721.444580 745.687561,721.284058 
	C735.634460,721.166382 725.406738,723.828552 717.612061,730.836304 
	C703.059753,743.919617 688.951355,757.500366 674.769409,770.990845 
	C662.676208,782.494446 650.819946,794.247314 638.711975,805.735107 
	C624.090454,819.607605 609.279480,833.280029 594.616455,847.109131 
	C584.414368,856.731079 574.370667,866.520996 564.172058,876.146667 
	C548.903015,890.558044 533.499390,904.827209 518.266846,919.276794 
	C505.088074,931.778259 492.123138,944.504944 478.961639,957.024841 
	C466.313477,969.056335 453.483795,980.896912 440.825470,992.917908 
	C424.814240,1008.122803 408.968048,1023.502014 392.914795,1038.662109 
	C379.566315,1051.267822 365.950531,1063.590210 352.581848,1076.174927 
	C337.030914,1090.813721 321.662201,1105.645874 306.138580,1120.313843 
	C283.842041,1141.381592 261.461700,1162.360474 239.145981,1183.407959 
	C221.670410,1199.890381 204.290604,1216.474609 186.772888,1232.911987 
	C169.449844,1249.166626 152.038223,1265.327393 134.607162,1281.466309 
	C120.919167,1294.139648 107.168083,1306.745239 93.396156,1319.327393 
	C83.645348,1328.235718 74.268196,1337.056885 70.083672,1350.497681 
	C66.279037,1362.718506 68.341667,1373.818726 73.660889,1384.452881 
	C80.873276,1398.871948 92.692291,1407.928589 108.897942,1410.459839 
	C121.482704,1412.425537 133.523300,1410.381714 143.618393,1402.468018 
	C153.225952,1394.936646 162.123581,1386.478394 171.131897,1378.208252 
	C189.110947,1361.702393 207.001495,1345.099243 224.835419,1328.436523 
	C240.625046,1313.683838 256.255554,1298.761108 272.017639,1283.978760 
	C285.011292,1271.792725 298.133514,1259.743652 311.127991,1247.558472 
	C325.978424,1233.632812 340.730774,1219.602661 355.562439,1205.656982 
	C368.246765,1193.730347 381.051453,1181.930908 393.675903,1169.941528 
	C404.980804,1159.205200 415.999176,1148.166138 427.347717,1137.477051 
	C443.355652,1122.399292 459.655426,1107.631226 475.637695,1092.526611 
	C491.829803,1077.223877 507.734070,1061.617065 523.860962,1046.244629 
	C544.322083,1026.740723 564.880554,1007.338989 585.902466,987.394836 
z"/>
<path fill="#595959" opacity="1.000000" stroke="none" 
	d="
M585.649780,987.644043 
	C564.880554,1007.338989 544.322083,1026.740723 523.860962,1046.244629 
	C507.734070,1061.617065 491.829803,1077.223877 475.637695,1092.526611 
	C459.655426,1107.631226 443.355652,1122.399292 427.347717,1137.477051 
	C415.999176,1148.166138 404.980804,1159.205200 393.675903,1169.941528 
	C381.051453,1181.930908 368.246765,1193.730347 355.562439,1205.656982 
	C340.730774,1219.602661 325.978424,1233.632812 311.127991,1247.558472 
	C298.133514,1259.743652 285.011292,1271.792725 272.017639,1283.978760 
	C256.255554,1298.761108 240.625046,1313.683838 224.835419,1328.436523 
	C207.001495,1345.099243 189.110947,1361.702393 171.131897,1378.208252 
	C162.123581,1386.478394 153.225952,1394.936646 143.618393,1402.468018 
	C133.523300,1410.381714 121.482704,1412.425537 108.897942,1410.459839 
	C92.692291,1407.928589 80.873276,1398.871948 73.660889,1384.452881 
	C68.341667,1373.818726 66.279037,1362.718506 70.083672,1350.497681 
	C74.268196,1337.056885 83.645348,1328.235718 93.396156,1319.327393 
	C107.168083,1306.745239 120.919167,1294.139648 134.607162,1281.466309 
	C152.038223,1265.327393 169.449844,1249.166626 186.772888,1232.911987 
	C204.290604,1216.474609 221.670410,1199.890381 239.145981,1183.407959 
	C261.461700,1162.360474 283.842041,1141.381592 306.138580,1120.313843 
	C321.662201,1105.645874 337.030914,1090.813721 352.581848,1076.174927 
	C365.950531,1063.590210 379.566315,1051.267822 392.914795,1038.662109 
	C408.968048,1023.502014 424.814240,1008.122803 440.825470,992.917908 
	C453.483795,980.896912 466.313477,969.056335 478.961639,957.024841 
	C492.123138,944.504944 505.088074,931.778259 518.266846,919.276794 
	C533.499390,904.827209 548.903015,890.558044 564.172058,876.146667 
	C574.370667,866.520996 584.414368,856.731079 594.616455,847.109131 
	C609.279480,833.280029 624.090454,819.607605 638.711975,805.735107 
	C650.819946,794.247314 662.676208,782.494446 674.769409,770.990845 
	C688.951355,757.500366 703.059753,743.919617 717.612061,730.836304 
	C725.406738,723.828552 735.634460,721.166382 745.687561,721.284058 
	C759.405823,721.444580 771.759827,726.330017 781.470276,736.840149 
	C792.019165,748.257751 802.853821,759.413086 813.637939,770.611511 
	C828.855469,786.413452 844.229919,802.065063 859.374268,817.936462 
	C877.355530,836.780762 895.116577,855.835083 913.068787,874.707397 
	C921.021790,883.067932 929.300171,891.118591 937.270081,899.463440 
	C949.730103,912.509583 962.013245,925.724426 974.446960,938.795837 
	C985.205139,950.105774 996.100586,961.284973 1006.878357,972.576416 
	C1024.545898,991.085754 1042.554565,1009.289551 1059.695068,1028.276123 
	C1075.737305,1046.046143 1084.410889,1067.620239 1087.815918,1091.156128 
	C1089.880859,1105.429199 1088.569580,1119.476440 1085.494385,1133.808105 
	C1081.389404,1152.940063 1073.689453,1170.041504 1061.713623,1184.991455 
	C1050.595459,1198.870850 1037.135498,1210.153198 1020.722595,1218.159790 
	C1000.792114,1227.882446 980.032837,1231.098999 958.216125,1231.068359 
	C850.894531,1230.918091 743.572388,1230.901367 636.250916,1231.089966 
	C616.659119,1231.124390 596.721741,1214.439941 591.498474,1197.197754 
	C588.130615,1186.080444 588.806763,1175.753662 592.429565,1165.954468 
	C596.658630,1154.515381 605.190491,1145.808472 616.482910,1140.082520 
	C624.370239,1136.083130 632.657654,1135.554810 641.157043,1135.554932 
	C748.312195,1135.556152 855.467407,1135.531982 962.622559,1135.584961 
	C976.424500,1135.591675 985.936829,1129.389282 991.401306,1116.820068 
	C994.560425,1109.553589 991.315857,1095.342285 985.736450,1089.511597 
	C966.958984,1069.888428 948.375183,1050.079956 929.651245,1030.405273 
	C918.971069,1019.182739 908.138855,1008.104919 897.417480,996.921265 
	C882.415710,981.272827 867.463562,965.576904 852.471069,949.919495 
	C841.250549,938.201538 829.983215,926.528442 818.766663,914.806763 
	C803.559570,898.914734 788.387756,882.988770 773.186707,867.090881 
	C767.098755,860.723816 761.094666,854.269714 754.830139,848.080139 
	C748.724915,842.047974 739.063110,842.223694 732.483093,848.404053 
	C722.018005,858.233521 711.696838,868.216003 701.289185,878.106873 
	C684.271301,894.279724 667.225952,910.423645 650.205261,926.593506 
	C637.715515,938.458862 625.271240,950.372009 612.760010,962.214600 
	C603.847717,970.650513 594.857788,979.004395 585.649780,987.644043 
z"/>
<path fill="#6EC1E4" opacity="1.000000" stroke="none" 
	d="
M1200.966187,615.274292 
	C1224.270752,614.890442 1247.267456,611.589294 1269.966553,606.728455 
	C1290.599121,602.310120 1310.361816,595.057556 1328.402588,583.814575 
	C1332.002319,581.571289 1334.805908,578.040222 1338.424683,575.840088 
	C1357.238647,564.401978 1376.529175,564.657471 1394.566040,576.629761 
	C1406.581909,584.605530 1413.824219,596.576233 1415.130981,611.749329 
	C1416.143555,623.505859 1414.502075,634.303589 1407.978638,644.272461 
	C1401.812256,653.695679 1393.570190,661.079346 1384.084229,666.694519 
	C1370.893799,674.502197 1357.489136,682.146667 1343.517822,688.386902 
	C1325.240723,696.550293 1306.118774,702.609009 1286.284180,706.040955 
	C1274.369019,708.102478 1262.520630,710.746521 1250.526245,712.104736 
	C1234.395874,713.931274 1218.153564,714.769958 1201.026367,716.034058 
	C1190.372437,716.087036 1180.651245,716.138611 1170.930176,716.190125 
	C1150.414673,714.780823 1129.869995,713.693726 1109.394409,711.842957 
	C1096.849854,710.708984 1084.364746,708.674561 1071.935791,706.558655 
	C1054.949219,703.666748 1037.973999,700.629517 1021.120056,697.059631 
	C1006.859863,694.039124 992.740295,690.320496 978.628723,686.641296 
	C962.773071,682.507385 946.946228,678.244812 931.203369,673.703491 
	C921.192017,670.815552 911.340942,667.365051 901.445740,664.083130 
	C888.126831,659.665771 874.777527,655.329163 861.547913,650.656006 
	C849.678467,646.463257 837.906799,641.981750 826.176208,637.411377 
	C811.052979,631.519470 795.977417,625.500916 780.949219,619.370422 
	C768.071106,614.117004 755.354431,608.464355 742.441772,603.299866 
	C732.924194,599.493286 723.229614,596.122375 713.570374,592.679504 
	C703.602600,589.126648 693.675720,585.414734 683.559998,582.333435 
	C672.161682,578.861450 660.607239,575.879150 649.053101,572.950439 
	C642.478027,571.283752 635.764526,570.166077 629.119385,568.772339 
	C612.539429,565.294861 595.971130,561.997131 578.888672,561.888550 
	C569.660461,561.829895 560.396118,559.749756 551.223572,560.182251 
	C529.080627,561.226379 507.027161,562.670898 485.450653,569.140381 
	C451.283295,579.384949 423.419312,598.224731 401.433960,626.188965 
	C390.534515,640.052490 381.522339,655.006531 375.155884,671.376587 
	C369.707794,685.385193 364.888702,699.673767 360.568298,714.071594 
	C358.200165,721.963440 357.941925,730.469177 355.849854,738.467163 
	C351.590179,754.751770 341.410950,766.202698 325.481689,771.877991 
	C319.635406,773.960876 313.259705,775.933472 307.192780,775.748657 
	C292.402588,775.298035 279.828461,769.195496 269.991516,757.805603 
	C257.523071,743.368713 255.352905,726.672729 259.678406,708.895935 
	C264.252289,690.098572 268.476990,671.105591 274.817749,652.881287 
	C280.592133,636.284790 288.536591,620.375061 296.367523,604.580566 
	C305.265259,586.634399 317.054596,570.489441 329.955994,555.178467 
	C341.477814,541.504761 354.119659,528.889709 368.582764,518.438293 
	C381.412048,509.167480 394.584961,500.104980 408.557220,492.759521 
	C422.079590,485.650604 436.562927,480.092407 451.090729,475.253815 
	C464.703857,470.719879 478.837341,467.582825 492.914917,464.666534 
	C502.467285,462.687744 512.318604,462.152039 522.945190,460.997284 
	C527.914490,460.742279 531.974731,460.460907 536.034973,460.179565 
	C546.709473,460.166107 557.384033,460.152679 568.849426,460.420807 
	C574.105591,460.792908 578.570923,460.883423 583.036194,460.973938 
	C599.646851,463.091370 616.366089,464.591431 632.839478,467.489258 
	C651.578796,470.785675 670.189575,474.957184 688.680542,479.468445 
	C700.386780,482.324371 711.831177,486.317871 723.287048,490.120361 
	C739.099243,495.368805 754.912109,500.646576 770.533264,506.428894 
	C782.002075,510.674225 793.136597,515.815979 804.468506,520.439697 
	C821.909424,527.556030 839.364075,534.640686 856.866150,541.604736 
	C869.016663,546.439453 881.170044,551.291626 893.480286,555.693665 
	C906.850647,560.474792 920.389404,564.788818 933.882812,569.220886 
	C943.467041,572.368958 953.044617,575.556396 962.721558,578.397888 
	C974.467651,581.846985 986.303589,584.993408 998.122986,588.188049 
	C1005.476501,590.175659 1012.819153,592.251404 1020.258362,593.864685 
	C1037.885864,597.687683 1055.522339,601.500366 1073.242554,604.855164 
	C1087.566162,607.566956 1101.951050,610.221436 1116.429565,611.778076 
	C1132.916382,613.550720 1149.537109,614.076843 1166.888062,615.437195 
	C1173.085327,615.820068 1178.496216,616.042114 1183.902832,615.964905 
	C1189.592773,615.883789 1195.278564,615.516541 1200.966187,615.274292 
z"/>
<path fill="#6EC1E4" opacity="1.000000" stroke="none" 
	d="
M973.947205,495.101074 
	C961.731018,492.921722 949.456238,491.023621 937.312561,488.495758 
	C919.976746,484.887115 904.115723,477.297363 888.893188,468.597687 
	C873.622009,459.870270 860.188782,448.579926 848.039612,435.854279 
	C831.652283,418.689453 818.738159,399.344208 809.428955,377.342224 
	C802.116272,360.058746 797.797607,342.204590 795.029724,322.947021 
	C794.770752,318.710541 794.490967,315.349457 794.211182,311.988373 
	C794.184265,305.313293 794.157349,298.638245 794.404785,291.181213 
	C794.783203,287.264923 794.887207,284.130615 794.991089,280.996277 
	C796.928833,270.922852 798.154846,260.643860 800.989380,250.829468 
	C804.327942,239.269867 808.522278,227.876205 813.368225,216.860458 
	C816.870117,208.899841 821.684204,201.435242 826.537109,194.166016 
	C838.822632,175.763260 854.015503,160.079254 871.641418,146.646805 
	C887.444519,134.603470 904.838501,125.489510 923.402649,118.889076 
	C948.051758,110.125160 973.687561,106.518059 999.826233,108.358597 
	C1015.513794,109.463226 1030.941162,112.185463 1046.054688,117.174652 
	C1061.728027,122.348633 1076.550659,129.008835 1090.508789,137.684738 
	C1106.496704,147.622147 1121.019775,159.488358 1132.818115,174.109039 
	C1142.179932,185.710403 1151.025269,197.930893 1158.479370,210.814148 
	C1166.399902,224.503494 1171.558472,239.487930 1175.394653,255.066895 
	C1180.310425,275.030304 1181.768799,295.078217 1180.681030,315.387817 
	C1179.773804,332.327454 1176.385254,348.974426 1170.865234,364.962585 
	C1162.076660,390.417328 1148.345825,413.224060 1130.126099,433.032684 
	C1111.936768,452.808075 1090.364624,468.264954 1065.730347,479.085999 
	C1045.416016,488.009491 1024.103394,493.404266 1000.989380,495.010315 
	C991.364136,495.033905 982.655640,495.067474 973.947205,495.101074 
M1039.165039,379.687714 
	C1049.943237,372.760620 1058.966553,363.922089 1065.885742,353.236633 
	C1077.802856,334.833069 1083.009521,314.433807 1080.869629,292.616638 
	C1079.572388,279.391693 1075.651001,266.670166 1068.856201,255.070312 
	C1062.273071,243.831909 1053.420410,234.683136 1043.140747,226.676270 
	C1028.694214,215.423904 1012.159546,209.666199 994.287659,208.135773 
	C973.100708,206.321442 953.550354,211.962708 935.889465,223.869019 
	C909.281250,241.807251 895.549866,267.122009 894.122437,298.905029 
	C893.302917,317.151917 898.081665,334.150574 907.467407,350.074585 
	C916.831909,365.962494 930.024963,377.553101 946.055237,385.672485 
	C961.253235,393.370270 977.626038,396.648895 994.967651,395.124573 
	C1010.881836,393.725800 1025.274292,388.657135 1039.165039,379.687714 
z"/>
<path fill="#9BB1BB" opacity="1.000000" stroke="none" 
	d="
M1200.510254,615.169678 
	C1195.278564,615.516541 1189.592773,615.883789 1183.902832,615.964905 
	C1178.496216,616.042114 1173.085327,615.820068 1167.356201,615.478394 
	C1178.042114,615.173157 1189.048096,615.119080 1200.510254,615.169678 
z"/>
<path fill="#CDD7DC" opacity="1.000000" stroke="none" 
	d="
M1171.259888,716.445312 
	C1180.651245,716.138611 1190.372437,716.087036 1200.562500,716.081055 
	C1196.655640,716.417786 1192.282593,716.885254 1187.903320,716.955261 
	C1182.468262,717.042236 1177.027710,716.800354 1171.259888,716.445312 
z"/>
<path fill="#B9C7CE" opacity="1.000000" stroke="none" 
	d="
M974.268127,495.366272 
	C982.655640,495.067474 991.364136,495.033905 1000.539185,495.038208 
	C992.200195,495.261230 983.394653,495.446350 974.268127,495.366272 
z"/>
<path fill="#9FCADB" opacity="1.000000" stroke="none" 
	d="
M582.724792,460.700470 
	C578.570923,460.883423 574.105591,460.792908 569.315979,460.456116 
	C573.465576,460.282227 577.939453,460.354614 582.724792,460.700470 
z"/>
<path fill="#9FCADB" opacity="1.000000" stroke="none" 
	d="
M535.577881,460.093628 
	C531.974731,460.460907 527.914490,460.742279 523.387329,460.986145 
	C526.987183,460.635010 531.054016,460.321350 535.577881,460.093628 
z"/>
<path fill="#A0C9DA" opacity="1.000000" stroke="none" 
	d="
M794.120239,312.433350 
	C794.490967,315.349457 794.770752,318.710541 795.030334,322.519928 
	C794.683167,319.604919 794.356201,316.241638 794.120239,312.433350 
z"/>
<path fill="#A0C9DA" opacity="1.000000" stroke="none" 
	d="
M794.729004,281.303711 
	C794.887207,284.130615 794.783203,287.264923 794.429321,290.715515 
	C794.275208,287.891571 794.371094,284.751343 794.729004,281.303711 
z"/>
<path fill="#FFFFFF" opacity="1.000000" stroke="none" 
	d="
M1038.897827,379.931519 
	C1025.274292,388.657135 1010.881836,393.725800 994.967651,395.124573 
	C977.626038,396.648895 961.253235,393.370270 946.055237,385.672485 
	C930.024963,377.553101 916.831909,365.962494 907.467407,350.074585 
	C898.081665,334.150574 893.302917,317.151917 894.122437,298.905029 
	C895.549866,267.122009 909.281250,241.807251 935.889465,223.869019 
	C953.550354,211.962708 973.100708,206.321442 994.287659,208.135773 
	C1012.159546,209.666199 1028.694214,215.423904 1043.140747,226.676270 
	C1053.420410,234.683136 1062.273071,243.831909 1068.856201,255.070312 
	C1075.651001,266.670166 1079.572388,279.391693 1080.869629,292.616638 
	C1083.009521,314.433807 1077.802856,334.833069 1065.885742,353.236633 
	C1058.966553,363.922089 1049.943237,372.760620 1038.897827,379.931519 
z"/>
</svg>