<?xml version="1.0" encoding="UTF-8" standalone="no"?>
<svg
   version="1.1"
   id="Layer_1"
   x="0px"
   y="0px"
   width="100%"
   viewBox="0 0 1826 1749"
   enable-background="new 0 0 1826 1749"
   xml:space="preserve"
   sodipodi:docname="logoonly.svg"
   inkscape:version="1.2.2 (b0a8486541, 2022-12-01)"
   xmlns:inkscape="http://www.inkscape.org/namespaces/inkscape"
   xmlns:sodipodi="http://sodipodi.sourceforge.net/DTD/sodipodi-0.dtd"
   xmlns="http://www.w3.org/2000/svg"
   xmlns:svg="http://www.w3.org/2000/svg"><defs
   id="defs53" /><sodipodi:namedview
   id="namedview51"
   pagecolor="#ffffff"
   bordercolor="#000000"
   borderopacity="0.25"
   inkscape:showpageshadow="2"
   inkscape:pageopacity="0.0"
   inkscape:pagecheckerboard="0"
   inkscape:deskcolor="#d1d1d1"
   showgrid="false"
   inkscape:zoom="0.13493425"
   inkscape:cx="1241.3453"
   inkscape:cy="870.79449"
   inkscape:window-width="1920"
   inkscape:window-height="1117"
   inkscape:window-x="0"
   inkscape:window-y="0"
   inkscape:window-maximized="1"
   inkscape:current-layer="Layer_1" />



<path
   fill="#595959"
   opacity="1.000000"
   stroke="none"
   d=" M715.881042,1417.143311   C713.670288,1406.828857 715.128052,1397.173340 718.629761,1387.986206   C726.504211,1367.326660 741.534668,1354.503052 763.065125,1349.544556   C767.535095,1348.515259 772.235779,1348.064087 776.830566,1348.061646   C913.994873,1347.985718 1051.159180,1348.021484 1188.323608,1347.968994   C1203.100220,1347.963257 1213.334717,1340.659668 1219.269775,1327.291504   C1224.908691,1314.589966 1222.467285,1300.403076 1212.955200,1290.487793   C1202.247437,1279.326050 1191.394165,1268.304077 1180.672852,1257.155396   C1165.698242,1241.583862 1150.783936,1225.954224 1135.850098,1210.343628   C1121.376953,1195.214600 1106.913940,1180.075806 1092.442261,1164.945190   C1077.625122,1149.453613 1062.803833,1133.965698 1047.982544,1118.477783   C1033.161499,1102.990112 1018.338196,1087.504150 1003.515625,1072.017700   C988.577759,1056.410889 973.612061,1040.830566 958.710266,1025.189331   C947.026489,1012.925781 935.519653,1000.492371 923.748901,988.313599   C915.305237,979.577209 903.904175,979.846985 895.120789,988.329773   C880.899902,1002.064087 866.536316,1015.650818 852.211853,1029.277588   C839.215210,1041.641357 826.187439,1053.972168 813.178955,1066.323364   C799.807983,1079.018677 786.452332,1091.730103 773.073853,1104.417603   C760.662537,1116.187866 748.218201,1127.923218 735.810059,1139.696899   C722.193237,1152.617310 708.617554,1165.581055 694.993347,1178.493530   C683.183044,1189.687012 671.308289,1200.812622 659.501282,1212.009399   C645.638977,1225.155151 631.840515,1238.368042 617.973938,1251.509399   C606.526001,1262.358521 594.997192,1273.122437 583.544495,1283.966553   C570.035034,1296.758057 556.584534,1309.611694 543.079529,1322.407715   C531.267578,1333.599487 519.404358,1344.737061 507.584290,1355.920288   C494.675110,1368.133911 481.810699,1380.395020 468.886688,1392.592896   C458.264526,1402.618042 447.555969,1412.551636 436.934967,1422.578003   C418.216949,1440.247681 399.558655,1457.980835 380.831390,1475.640625   C371.053314,1484.861206 361.144562,1493.943115 351.359833,1503.156616   C333.226196,1520.231812 315.156464,1537.375000 297.028168,1554.455811   C286.761261,1564.129395 276.436249,1573.741211 266.127716,1583.370361   C251.090897,1597.416382 236.073563,1611.483521 220.994705,1625.484375   C208.234604,1637.331787 195.461884,1649.167236 182.573990,1660.875000   C174.244949,1668.441406 166.005188,1676.158936 157.169876,1683.101685   C146.465576,1691.513184 134.153595,1695.222534 120.257668,1695.188477   C102.765678,1695.145630 88.122108,1689.150146 76.339325,1676.681519   C62.936520,1662.498291 58.090176,1645.472412 60.761948,1625.993774   C63.353348,1607.101074 73.739548,1593.657593 88.492416,1582.680298   C92.993767,1579.331055 96.961258,1575.248779 101.076096,1571.398315   C112.470886,1560.735474 123.801453,1550.004272 135.181107,1539.325317   C151.035736,1524.446777 166.910538,1509.589600 182.779068,1494.725952   C193.196060,1484.968628 203.631104,1475.230713 214.032990,1465.457520   C225.648941,1454.543457 237.231598,1443.593872 248.837494,1432.669067   C259.958008,1422.201172 271.101685,1411.757568 282.213531,1401.280273   C294.416199,1389.774414 306.585663,1378.233398 318.784973,1366.723877   C330.135986,1356.014648 341.521423,1345.342041 352.865753,1334.625732   C365.542419,1322.651001 378.183136,1310.638550 390.852051,1298.655640   C402.794708,1287.359741 414.762360,1276.090332 426.703308,1264.792480   C439.491364,1252.693359 452.247162,1240.559937 465.042908,1228.468872   C476.385651,1217.750854 487.788574,1207.096558 499.119873,1196.366577   C512.749756,1183.460083 526.317810,1170.488403 539.938904,1157.572754   C551.988464,1146.147217 564.089966,1134.776611 576.139465,1123.351196   C589.760742,1110.435547 603.337708,1097.473145 616.955933,1084.554321   C629.244629,1072.896851 641.577393,1061.285889 653.864502,1049.626709   C667.601929,1036.591431 681.288330,1023.502319 695.037292,1010.479309   C706.367065,999.747620 717.794739,989.119141 729.109131,978.371338   C744.047302,964.181152 758.901306,949.902222 773.821106,935.692505   C786.810425,923.321289 799.846191,910.998840 812.851807,898.644714   C826.461365,885.716797 839.912048,872.616760 853.715881,859.899841   C862.462524,851.841858 871.197510,843.596313 880.873718,836.759583   C899.450378,823.634277 930.481323,824.972046 947.866577,839.630249   C957.336853,847.614929 965.671021,856.968933 974.338318,865.879761   C993.351196,885.427185 1012.279907,905.056824 1031.185059,924.708557   C1045.584961,939.676941 1059.887939,954.738403 1074.248413,969.744568   C1089.530762,985.713806 1104.836426,1001.660645 1120.120239,1017.628357   C1134.597412,1032.753418 1149.057495,1047.895264 1163.529053,1063.025757   C1178.346191,1078.517334 1193.169800,1094.003052 1207.988037,1109.493652   C1222.576050,1124.743652 1237.159912,1139.997192 1251.746948,1155.247925   C1266.449097,1170.619019 1281.110718,1186.029297 1295.866943,1201.348267   C1313.521729,1219.676392 1327.721802,1240.218994 1335.671143,1264.574707   C1339.872314,1277.447266 1342.509033,1290.685303 1343.062500,1304.335815   C1343.965820,1326.611938 1341.192505,1348.246826 1333.073975,1369.095337   C1325.618774,1388.240356 1315.323120,1405.559814 1301.064209,1420.529175   C1288.133179,1434.104248 1273.682617,1445.527588 1256.740479,1453.622192   C1240.226440,1461.512207 1222.938599,1466.792114 1204.577759,1467.984375   C1196.638916,1468.499756 1188.677856,1468.954590 1180.726685,1468.958008   C1044.395630,1469.016479 908.064331,1469.136597 771.733704,1468.887207   C743.779358,1468.836060 718.570862,1444.327148 715.881042,1417.143311  z"
   id="path8" />
<path
   fill="#6EC1E4"
   opacity="1.000000"
   stroke="none"
   d=" M529.555054,661.794189   C529.555054,661.794189 529.238037,661.947449 528.676514,661.778809   C527.581604,662.347717 527.048218,663.085205 526.514832,663.822693   C526.514832,663.822693 526.210510,663.950745 525.662720,663.780518   C524.581604,664.347717 524.048218,665.085205 523.514832,665.822693   C523.514832,665.822693 523.210327,665.950806 522.664551,665.780273   C521.592468,666.341614 521.066162,667.073425 520.539856,667.805237   C520.173584,668.178955 519.807312,668.552673 518.779907,668.768066   C517.592407,669.341614 517.066162,670.073425 516.539856,670.805237   C516.168152,671.180725 515.796509,671.556152 514.787720,671.756836   C513.447937,672.426147 512.745178,673.270264 512.042480,674.114380   C511.205383,675.041382 510.368317,675.968384 508.840973,676.738770   C507.447998,677.426147 506.745270,678.270264 506.042542,679.114258   C503.557800,681.694092 501.073090,684.273926 497.892273,686.727783   C496.746582,687.220825 496.297089,687.839722 495.847595,688.458618   C495.847595,688.458618 495.764160,688.755554 495.265991,688.681519   C493.526062,690.443115 492.284332,692.278687 491.042572,694.114319   C489.268127,696.008484 487.493683,697.902588 485.036957,699.931885   C481.188110,700.560608 480.030823,702.362061 480.850647,705.450378   C480.850647,705.450378 480.767273,705.751770 480.262512,705.679626   C476.544617,705.874573 476.266449,707.903503 476.850739,710.450195   C476.850739,710.450195 476.767181,710.751831 476.276367,710.678345   C474.457184,711.663208 472.828888,712.497620 471.846100,713.813965   C459.454285,730.410278 449.484589,748.396057 441.291382,767.398987   C431.909637,789.158630 424.677032,811.585083 420.983795,835.016907   C418.870117,848.427124 416.493378,861.569031 407.478516,872.457703   C406.521454,873.613831 406.498749,875.543518 406.042603,877.114380   C404.556091,878.694885 403.069580,880.275452 400.850922,881.732910   C399.592468,882.341614 399.066162,883.073486 398.539856,883.805298   C398.173676,884.178955 397.807495,884.552612 396.778198,884.768250   C395.581604,885.347656 395.048187,886.085144 394.514771,886.822693   C394.514771,886.822693 394.194763,886.956238 393.626587,886.719116   C388.763977,886.496033 385.135376,887.761597 382.999725,891.833374   C372.778015,896.101013 362.330536,896.754761 351.347778,895.147278   C337.005920,893.047974 324.912292,886.869263 315.204559,876.502747   C306.293549,866.987122 300.829468,855.686829 298.796448,842.414734   C296.642548,828.353516 299.415314,814.852356 302.460724,801.637146   C307.317596,780.561340 313.576050,759.769165 320.130157,739.139221   C323.837280,727.470520 329.056793,716.248901 334.055939,705.031311   C343.121429,684.689270 353.996735,665.304749 367.049408,647.255798   C374.787140,636.556213 383.028442,626.186218 391.565338,616.110352   C398.090393,608.409058 405.371307,601.340271 412.426941,594.098206   C428.857086,577.233704 447.808807,563.460815 467.730743,551.224121   C491.813934,536.431519 517.555908,524.932983 544.677368,516.708740   C563.481689,511.006561 582.494202,506.174530 602.067017,504.042694   C616.572815,502.462738 631.105713,500.968506 645.666199,500.100616   C659.396362,499.282227 673.202820,498.666168 686.931030,499.172791   C703.329834,499.777954 719.798035,500.861755 736.024597,503.203796   C758.034912,506.380676 780.042480,510.097443 801.689941,515.135315   C828.602112,521.398438 855.500488,528.154480 881.755798,536.693420   C912.766235,546.778931 943.223450,558.633545 973.665039,570.382935   C1011.355652,584.930054 1048.673950,600.442200 1086.369019,614.977539   C1107.320068,623.056458 1128.479980,630.756104 1149.955566,637.276550   C1185.216309,647.982361 1220.704712,657.985718 1256.307251,667.499268   C1275.076294,672.514587 1294.227783,676.187622 1313.321411,679.871765   C1329.609863,683.014587 1346.029541,685.536987 1362.454590,687.891052   C1372.663696,689.354187 1382.977539,690.167725 1393.268433,690.959473   C1408.368286,692.121155 1423.479004,693.235901 1438.605103,693.935242   C1452.682739,694.586182 1466.810913,695.333618 1480.873047,694.827148   C1497.604126,694.224426 1514.458374,693.383728 1530.950562,690.728577   C1551.713989,687.385742 1572.326904,682.728760 1592.702515,677.468323   C1610.765991,672.804810 1628.008057,665.583374 1643.581543,655.006531   C1647.490356,652.351746 1650.753906,648.741455 1654.680298,646.118591   C1675.347778,632.312561 1697.435425,630.446533 1719.605835,641.153381   C1740.441772,651.215881 1752.018311,668.500488 1754.054321,691.960754   C1755.904785,713.284668 1748.944458,731.315491 1733.035522,745.104248   C1722.654541,754.101868 1711.063721,761.899353 1699.303955,769.068176   C1676.644287,782.881714 1652.196777,792.985413 1626.616211,799.933594   C1608.203003,804.934814 1589.570312,809.328613 1570.816162,812.811523   C1554.949585,815.758118 1538.787476,817.187500 1522.718384,818.941650   C1513.238892,819.976501 1503.694336,820.529968 1494.163574,820.951416   C1482.079712,821.485901 1469.973633,822.087891 1457.889038,821.898315   C1441.029541,821.633972 1424.154175,821.054016 1407.335693,819.886536   C1390.505615,818.718445 1373.677856,817.107727 1356.958008,814.874084   C1338.580322,812.419067 1320.202148,809.641907 1302.046265,805.921326   C1266.648926,798.667419 1231.264771,791.243469 1196.149780,782.754456   C1173.078369,777.176941 1150.347046,770.051636 1127.718018,762.822693   C1100.010742,753.971375 1072.380127,744.805847 1045.065552,734.820557   C1016.686096,724.445862 988.517517,713.424500 960.627686,701.796143   C920.031433,684.870117 879.701965,667.216125 837.393555,654.944641   C810.688599,647.198975 783.678589,640.379639 756.555176,634.252930   C741.974365,630.959473 726.895752,629.728577 711.984436,628.087891   C701.519287,626.936401 690.965576,626.367065 680.436584,626.077698   C668.258667,625.742981 656.014465,625.298767 643.889038,626.164001   C625.379272,627.484741 607.011658,630.348633 589.117615,635.489075   C581.052612,637.805908 573.119629,640.610168 565.208862,643.424438   C560.654907,645.044495 556.265137,647.126221 551.167480,648.834717   C546.327515,648.924866 542.217529,649.321289 541.565063,654.786682   C541.565063,654.786682 541.227844,654.951782 540.634766,654.715515   C536.903931,654.247498 534.198914,654.565918 534.563843,658.787598   C534.563843,658.787598 534.228271,658.951782 533.629578,658.717407   C530.348267,657.986938 529.128662,659.026611 529.555054,661.794189  z"
   id="path10" />
<path
   fill="#6EC1E4"
   opacity="1.000000"
   stroke="none"
   d=" M1455.967407,257.262817   C1459.278076,276.015869 1459.289307,294.505890 1458.995117,313.009827   C1458.726318,329.918274 1455.874023,346.489777 1451.555908,362.752899   C1446.556396,381.581848 1440.000244,399.981171 1429.878174,416.675079   C1421.478760,430.527710 1412.295166,444.004333 1402.358154,456.792084   C1395.070557,466.170166 1386.411621,474.611328 1377.627808,482.667328   C1364.767578,494.461884 1350.773926,504.996155 1335.140137,512.841125   C1321.285645,519.793274 1307.181030,526.478760 1292.632080,531.751343   C1277.561890,537.212830 1261.843018,541.029602 1245.683228,541.964844   C1230.680054,542.833313 1215.574219,544.655457 1200.656738,543.735901   C1164.580322,541.512085 1130.353027,531.879456 1098.607666,514.199097   C1082.330811,505.133820 1067.389160,494.291016 1053.307251,482.022949   C1034.054810,465.250488 1018.570801,445.511261 1005.506958,423.835205   C992.462952,402.192230 983.245850,378.831512 978.150513,354.075470   C975.626221,341.810913 974.479431,329.245361 973.074341,316.774872   C972.318176,310.063538 971.965149,303.259705 972.068054,296.507324   C972.395508,275.024109 975.516724,253.882446 981.416077,233.238663   C988.681274,207.815338 999.863770,184.183990 1014.910278,162.381775   C1025.514282,147.016464 1037.529907,132.838165 1051.319458,120.326912   C1071.219849,102.271324 1093.561279,87.716995 1118.247681,77.032837   C1137.166748,68.844757 1156.813110,63.171890 1177.265991,59.795986   C1195.362061,56.809097 1213.542114,55.962490 1231.580933,57.336563   C1248.193115,58.601948 1264.749146,61.997784 1281.038818,65.726372   C1298.765747,69.783936 1315.761963,76.563896 1331.331421,85.978157   C1345.330811,94.443130 1358.962402,103.684196 1371.915894,113.672577   C1391.931519,129.106430 1407.768066,148.447449 1421.404053,169.722839   C1436.163452,192.751251 1446.480957,217.562820 1452.991943,244.041290   C1454.035645,248.286194 1454.961548,252.560089 1455.967407,257.262817  M1313.535278,235.042099   C1301.891846,217.904587 1286.857422,204.406494 1268.377930,195.233047   C1245.052856,183.654236 1220.443604,180.134003 1194.571167,184.890137   C1164.117920,190.488358 1139.719360,206.066132 1121.536133,230.409958   C1103.856323,254.079834 1095.816162,281.099854 1098.847290,311.149139   C1100.524414,327.776001 1105.143555,343.214508 1113.283081,357.663239   C1124.906128,378.295441 1141.191406,394.253632 1162.306274,404.994751   C1185.870850,416.982056 1210.699829,420.924835 1236.882568,416.051208   C1260.102539,411.729065 1280.083252,401.142090 1297.199097,385.178772   C1308.897705,374.267975 1317.536011,361.088104 1323.987793,346.398956   C1333.384888,325.004364 1335.180542,302.619995 1331.737427,279.961121   C1329.316284,264.029022 1322.880737,249.223557 1313.535278,235.042099  z"
   id="path12" />
<path
   fill="#6EC1E4"
   opacity="1.000000"
   stroke="none"
   d=" M406.357574,876.976501   C406.498749,875.543518 406.521454,873.613831 407.478516,872.457703   C416.493378,861.569031 418.870117,848.427124 420.983795,835.016907   C424.677032,811.585083 431.909637,789.158630 441.291382,767.398987   C449.484589,748.396057 459.454285,730.410278 471.846100,713.813965   C472.828888,712.497620 474.457184,711.663208 476.126831,710.724487   C471.336548,718.705444 465.942139,726.409424 461.124756,734.458618   C448.853180,754.962646 439.245636,776.674011 433.017578,799.777771   C429.779236,811.790955 426.232300,823.809143 424.298401,836.057678   C422.758911,845.808411 421.038666,855.267395 415.961029,863.760864   C413.225922,868.335999 409.791473,872.493042 406.357574,876.976501  z"
   id="path14" />
<path
   fill="#6EC1E4"
   opacity="1.000000"
   stroke="none"
   d=" M383.366699,891.901978   C385.135376,887.761597 388.763977,886.496033 393.467712,886.649780   C390.495880,888.535156 387.114807,890.252869 383.366699,891.901978  z"
   id="path16" />
<path
   fill="#6EC1E4"
   opacity="1.000000"
   stroke="none"
   d=" M541.835999,654.557739   C542.217529,649.321289 546.327515,648.924866 550.790771,648.888794   C548.067566,650.848511 545.087280,652.588684 541.835999,654.557739  z"
   id="path18" />
<path
   fill="#6EC1E4"
   opacity="1.000000"
   stroke="none"
   d=" M481.101013,705.267273   C480.030823,702.362061 481.188110,700.560608 484.734589,700.054688   C483.860107,701.723022 482.605743,703.403564 481.101013,705.267273  z"
   id="path20" />
<path
   fill="#6EC1E4"
   opacity="1.000000"
   stroke="none"
   d=" M534.829895,658.564392   C534.198914,654.565918 536.903931,654.247498 540.459534,654.648193   C538.950195,655.991882 537.023071,657.166565 534.829895,658.564392  z"
   id="path22" />
<path
   fill="#6EC1E4"
   opacity="1.000000"
   stroke="none"
   d=" M491.347046,693.985229   C492.284332,692.278687 493.526062,690.443115 495.118225,688.725769   C494.196289,690.514771 492.923920,692.185486 491.347046,693.985229  z"
   id="path24" />
<path
   fill="#6EC1E4"
   opacity="1.000000"
   stroke="none"
   d=" M477.093719,710.272888   C476.266449,707.903503 476.544617,705.874573 480.113129,705.725830   C479.424530,707.261292 478.380615,708.678406 477.093719,710.272888  z"
   id="path26" />
<path
   fill="#6EC1E4"
   opacity="1.000000"
   stroke="none"
   d=" M529.814636,661.581482   C529.128662,659.026611 530.348267,657.986938 533.455566,658.649414   C532.611572,659.666870 531.342896,660.517822 529.814636,661.581482  z"
   id="path28" />
<path
   fill="#6EC1E4"
   opacity="1.000000"
   stroke="none"
   d=" M506.330261,678.999268   C506.745270,678.270264 507.447998,677.426147 508.526917,676.693726   C508.141418,677.498291 507.379700,678.191223 506.330261,678.999268  z"
   id="path30" />
<path
   fill="#6EC1E4"
   opacity="1.000000"
   stroke="none"
   d=" M512.330200,673.999329   C512.745178,673.270264 513.447937,672.426147 514.526794,671.693726   C514.141296,672.498352 513.379578,673.191284 512.330200,673.999329  z"
   id="path32" />
<path
   fill="#6EC1E4"
   opacity="1.000000"
   stroke="none"
   d=" M496.062225,688.302002   C496.297089,687.839722 496.746582,687.220825 497.556213,686.699585   C497.369873,687.246643 496.823364,687.695984 496.062225,688.302002  z"
   id="path34" />
<path
   fill="#6EC1E4"
   opacity="1.000000"
   stroke="none"
   d=" M516.786865,670.613770   C517.066162,670.073425 517.592407,669.341614 518.525085,668.691772   C518.298889,669.323303 517.666382,669.872803 516.786865,670.613770  z"
   id="path36" />
<path
   fill="#6EC1E4"
   opacity="1.000000"
   stroke="none"
   d=" M398.786865,883.613892   C399.066162,883.073486 399.592468,882.341614 400.525208,881.691772   C400.299042,882.323303 399.666443,882.872864 398.786865,883.613892  z"
   id="path38" />
<path
   fill="#6EC1E4"
   opacity="1.000000"
   stroke="none"
   d=" M394.766968,886.632812   C395.048187,886.085144 395.581604,885.347656 396.523438,884.691895   C396.294281,885.330017 395.656738,885.886414 394.766968,886.632812  z"
   id="path40" />
<path
   fill="#6EC1E4"
   opacity="1.000000"
   stroke="none"
   d=" M520.786865,667.613770   C521.066162,667.073425 521.592468,666.341614 522.525085,665.691772   C522.298889,666.323242 521.666321,666.872803 520.786865,667.613770  z"
   id="path42" />
<path
   fill="#6EC1E4"
   opacity="1.000000"
   stroke="none"
   d=" M523.766968,665.632812   C524.048218,665.085205 524.581604,664.347717 525.523438,663.691895   C525.294250,664.330017 524.656738,664.886475 523.766968,665.632812  z"
   id="path44" />
<path
   fill="#6EC1E4"
   opacity="1.000000"
   stroke="none"
   d=" M526.766968,663.632812   C527.048218,663.085205 527.581604,662.347717 528.523438,661.691895   C528.294250,662.330017 527.656677,662.886414 526.766968,663.632812  z"
   id="path46" />

</svg>
